<?xml version="1.0" standalone="no"?>
<!DOCTYPE svg PUBLIC "-//W3C//DTD SVG 20010904//EN"
 "http://www.w3.org/TR/2001/REC-SVG-20010904/DTD/svg10.dtd">
<svg version="1.0" xmlns="http://www.w3.org/2000/svg"
 width="140.000000pt" height="140.000000pt" viewBox="0 0 140.000000 140.000000"
 preserveAspectRatio="xMidYMid meet">
<metadata>
Created by potrace 1.11, written by Peter Selinger 2001-2013
</metadata>
<g transform="translate(0.000000,140.000000) scale(0.100000,-0.100000)"
fill="#000000" stroke="none">
<path d="M502 1389 c-348 -14 -482 -101 -482 -312 0 -35 -5 -68 -11 -74 -9 -9
-7 -22 5 -54 9 -23 21 -71 26 -108 11 -74 24 -138 34 -162 5 -11 1 -18 -13
-22 -15 -4 -21 -13 -21 -33 0 -27 0 -27 -20 -9 -20 18 -21 18 -18 -43 3 -58 4
-60 22 -48 20 13 37 44 18 33 -5 -4 -16 1 -23 10 -12 15 -12 16 3 10 11 -4 18
-2 19 6 0 7 5 0 11 -15 8 -22 6 -31 -7 -45 -16 -16 -16 -17 5 -25 12 -4 27 -5
33 -2 7 3 4 -1 -5 -8 -11 -10 -14 -19 -7 -29 19 -30 10 -46 -31 -53 -44 -7
-55 -32 -17 -39 l22 -4 -22 -2 c-16 -1 -23 -7 -23 -22 0 -17 4 -20 23 -15 12
3 29 6 38 6 8 0 24 7 35 16 19 15 18 15 -3 11 -17 -4 -23 -1 -23 13 0 12 10
21 31 25 20 5 29 11 25 21 -3 8 -2 14 3 14 13 0 21 -38 21 -97 0 -48 -3 -54
-36 -80 -21 -15 -54 -43 -75 -62 l-39 -33 0 -79 0 -79 380 0 c209 0 380 2 380
5 0 18 -34 67 -61 88 -28 22 -30 26 -18 46 15 22 22 25 81 35 29 5 36 11 32
24 -2 9 2 4 10 -13 l14 -30 5 55 4 55 0 -65 c1 -36 1 -95 2 -132 l1 -68 284 0
285 0 1 459 c0 302 -3 462 -10 466 -5 3 -10 11 -10 16 0 6 4 8 8 5 5 -3 8 8 8
25 0 33 -4 36 -20 14 -8 -10 -16 -12 -26 -5 -12 8 -9 12 17 22 l32 12 -1 188
c0 104 -4 185 -9 182 -5 -3 -9 0 -9 5 0 14 -179 15 -214 1 -17 -6 -26 -6 -26
0 0 16 -37 11 -44 -5 -3 -8 -12 -15 -21 -15 -18 0 -20 16 -2 23 6 3 2 6 -11 6
-13 1 -20 -3 -17 -9 3 -5 2 -10 -4 -10 -5 0 -12 4 -15 9 -3 5 -34 9 -68 8 -35
0 -55 -2 -45 -5 12 -2 16 -9 13 -19 -3 -8 -6 -17 -6 -19 0 -2 -9 -4 -20 -4
-22 0 -27 15 -7 23 9 4 9 6 -1 6 -7 1 -11 5 -8 9 2 4 -5 8 -17 9 -12 0 -16 -1
-9 -4 6 -3 10 -9 6 -14 -8 -14 -24 -11 -24 6 0 21 -12 19 -39 -6 -12 -12 -25
-18 -29 -14 -4 4 2 13 13 21 18 13 17 14 -18 12 -33 -3 -35 -4 -20 -16 16 -12
15 -13 -12 -10 -17 2 -29 8 -28 15 2 8 -7 12 -22 10 -14 -1 -96 -5 -183 -8z
m148 -392 c0 3 7 0 15 -7 8 -6 18 -9 23 -6 14 8 67 -44 92 -91 12 -23 25 -64
29 -90 7 -44 8 -46 15 -20 5 15 12 27 17 27 13 0 11 -24 -3 -38 -25 -25 1 -22
28 3 18 17 22 25 12 21 -12 -3 -18 0 -18 9 0 8 6 15 14 15 8 0 17 7 20 16 3 8
10 12 16 9 6 -4 7 -12 3 -18 -4 -7 0 -6 10 2 25 20 10 34 -31 26 -31 -6 -34
-5 -23 9 7 8 20 12 28 9 10 -4 14 -2 10 4 -4 6 3 19 15 29 12 11 18 13 14 7
-4 -8 -2 -13 5 -13 7 0 9 -8 6 -21 -5 -17 -3 -18 11 -8 9 7 23 20 31 29 9 11
15 12 18 3 3 -9 12 -9 30 -2 14 5 28 7 31 4 3 -3 0 -5 -7 -5 -7 0 -9 -4 -6
-10 6 -9 -17 -14 -53 -13 -7 1 -11 -1 -8 -4 3 -3 -11 -19 -31 -34 -20 -16 -32
-29 -28 -29 4 0 -4 -13 -18 -30 -14 -16 -27 -35 -29 -41 -3 -9 -13 -9 -42 1
-51 16 -161 14 -199 -5 -41 -21 -51 -19 -121 15 -40 20 -84 32 -128 37 -37 3
-65 10 -62 14 3 5 15 9 28 9 12 0 28 6 35 13 11 9 12 9 7 0 -5 -9 -2 -11 8 -7
9 3 16 11 16 17 0 6 8 19 17 29 14 15 15 23 6 38 -10 15 -7 22 20 44 18 15 43
30 57 33 14 4 30 12 37 19 9 8 24 9 48 4 19 -4 35 -6 35 -3z m547 -190 c51
-32 66 -52 58 -76 -3 -11 1 -41 10 -67 9 -26 14 -49 12 -51 -6 -6 -100 18
-114 29 -7 5 -18 6 -25 2 -19 -12 -50 -15 -44 -5 11 18 -57 31 -112 22 l-53
-8 6 26 c9 39 70 124 104 144 16 9 40 17 54 17 13 0 30 7 38 16 12 14 14 14
20 -5 5 -11 25 -31 46 -44z m-551 -237 c30 -84 48 -101 100 -94 28 3 28 3 4
-5 -14 -5 -21 -9 -17 -10 5 -1 5 -6 2 -11 -4 -7 -13 -7 -24 -1 -13 7 -24 6
-40 -5 -29 -21 -60 -14 -82 16 -16 21 -17 31 -8 63 7 28 7 47 -2 72 -10 27
-10 37 0 49 21 26 38 7 67 -74z"/>
</g>
</svg>
